<svg id="レイヤー_1" data-name="レイヤー 1" xmlns="http://www.w3.org/2000/svg" viewBox="0 0 698.83 99.24"><defs><style>.cls-1{fill:#040000;}</style></defs><path class="cls-1" d="M50.58,92.63h66.77v17.52H71.47V132h39.77v16.19H71.47v39.14H50.58Z" transform="translate(-50.58 -90.38)"/><path class="cls-1" d="M140.14,92.63H161v77.22h46.28v17.52H140.14Z" transform="translate(-50.58 -90.38)"/><path class="cls-1" d="M227.39,92.63h20.88v94.74H227.39Z" transform="translate(-50.58 -90.38)"/><path class="cls-1" d="M279.61,92.63h20.75L340,156.19h.26V92.63h19.55v94.74H338.93L299.43,124h-.27v63.42H279.61Z" transform="translate(-50.58 -90.38)"/><path class="cls-1" d="M409.82,110.15H381.36V92.63h77.8v17.52H430.7v77.22H409.82Z" transform="translate(-50.58 -90.38)"/><path class="cls-1" d="M478.93,92.63h71v17.52H499.82v20.3h46v16.18h-46v23.22H551v17.52H478.93Z" transform="translate(-50.58 -90.38)"/><path class="cls-1" d="M630.78,187.39,611.94,153H594.72v34.35H573.8V92.6H619c22.46,0,34.33,10.73,34.33,31,0,12-7.65,21.94-19.5,25.4l-.46.13,21.84,38.23Zm-36.06-51.31H617c8.5-.14,13.17-4.73,13.17-12.93s-4.67-12.79-13.16-12.93H594.72Z" transform="translate(-50.58 -90.38)"/><path class="cls-1" d="M689.7,155.92c0,12.61,9.84,17.51,21,17.51,7.32,0,18.49-2.12,18.49-11.8,0-10.22-14.23-11.94-28.2-15.66s-28.33-9.15-28.33-26.93c0-19.37,18.36-28.66,35.51-28.66,19.82,0,38,8.62,38,30.51H726c-.67-11.41-8.78-14.32-18.76-14.32-6.65,0-14.36,2.78-14.36,10.74,0,7.3,4.52,8.23,28.33,14.33,6.91,1.73,28.2,6.1,28.2,27.6,0,17.38-13.7,30.38-39.51,30.38-21,0-40.7-10.35-40.43-33.7Z" transform="translate(-50.58 -90.38)"/></svg>