<svg id="レイヤー_1" data-name="レイヤー 1" xmlns="http://www.w3.org/2000/svg" viewBox="0 0 800 280"><defs><style>.cls-1{fill:#34314c;}.cls-2{fill:#45b8e0;}.cls-3{fill:#ffca51;}.cls-4{fill:#ff4d5b;}</style></defs><path d="M205.0991,93.0061h-35.114l-12.6612,17.8-6.247,8.9825V45.5956H122.3782v141.4h28.6987v-35.6l6.247,8.8171L176.4,186.9957h35.114L174.8809,135.592Z"/><path d="M253.2117,93.0061H224.513v93.99h28.6987Z"/><path d="M238.8629,78.5335A16.4707,16.4707,0,1,0,222.15,62.0646,16.4707,16.4707,0,0,0,238.8629,78.5335Z"/><path d="M333.2324,91.1764a41.0307,41.0307,0,0,0-27.6861,10.979V93.0061h-28.7v141.4h28.7V177.18A41.3517,41.3517,0,0,0,333.2324,188.16c32.5819,0,43.7237-30.11,43.7237-48.4075C376.9561,112.969,357.3727,91.1764,333.2324,91.1764ZM325.4659,163.54c-9.1154,0-16.8808-6.6537-19.92-15.97a27.6869,27.6869,0,0,1-1.3512-8.3183,26.8458,26.8458,0,0,1,1.3512-8.3171c3.0388-9.3159,10.8042-15.97,19.92-15.97,11.6485,0,21.2709,10.8123,21.2709,24.2867S337.2838,163.54,325.4659,163.54Z"/><path d="M448.7034,91.1764a41.3554,41.3554,0,0,0-27.6862,10.979V93.0061H392.3186v141.4h28.6986V177.18A41.3542,41.3542,0,0,0,448.7033,188.16c32.582,0,43.7248-30.11,43.7248-48.4075C492.4282,112.969,472.8449,91.1764,448.7034,91.1764ZM440.938,163.54c-9.1165,0-16.8819-6.6537-19.9208-15.97a27.7192,27.7192,0,0,1-1.35-8.3183,26.8756,26.8756,0,0,1,1.35-8.3171c3.0389-9.3159,10.8042-15.97,19.9208-15.97,11.818,0,21.2709,10.8123,21.2709,24.2867S452.5866,163.54,440.938,163.54Z"/><path class="cls-1" d="M580.5529,117.7934c-.17,0-.17-.1671-.341-.1671-1.3489-.8317-2.7013-1.6634-4.0491-2.3292,0,.167,0,.3329-.17.3329A30.4742,30.4742,0,0,1,546.62,137.2557a14.7461,14.7461,0,0,1-2.7013-.1659v44.249a69.3287,69.3287,0,0,0,34.4376-17.9648,66.1672,66.1672,0,0,0,14.6863-20.4622,17.6254,17.6254,0,0,0,.17-2.9939,25.7986,25.7986,0,0,0-11.6485-21.6257C581.2268,118.2922,580.89,117.9593,580.5529,117.7934Zm-1.3525-.6659c-.17,0-.3375-.167-.5079-.167A.6277.6277,0,0,1,579.2,117.1275Z"/><path class="cls-2" d="M529.9071,45.762a77.6794,77.6794,0,0,0-8.7814.4991V110.473a68.1229,68.1229,0,0,1,21.9482-3.4934h.6739a70.0991,70.0991,0,0,1,32.2444,8.1516c1.5183.8317,3.0377,1.6634,4.39,2.4951.3375.1671.6739.4988,1.0115.6659a25.7986,25.7986,0,0,1,11.6485,21.6257,18.0147,18.0147,0,0,1-.167,2.9939A64.6,64.6,0,0,0,596.9243,132.1a69.9383,69.9383,0,0,0,2.3639-17.9659c0-33.1048-23.9712-60.7194-55.54-67.0408A73.6931,73.6931,0,0,0,529.9071,45.762Z"/><path class="cls-3" d="M677.6213,90.3448V46.4274A74.4506,74.4506,0,0,0,655,47.2593c-31.7364,6.3213-55.54,33.9359-55.54,67.04a69.0159,69.0159,0,0,0,2.3638,17.9659,59.5691,59.5691,0,0,0,4.0491,10.8134v-.3329a18.1221,18.1221,0,0,1-.1659-2.9939,25.92,25.92,0,0,1,11.6474-21.46c.3375-.1671.6751-.4988,1.0115-.6659,1.3524-.8317,2.8718-1.6634,4.3911-2.4951A70.0855,70.0855,0,0,1,655,106.98h.6739a68.8463,68.8463,0,0,1,21.9481,3.4934Z"/><path class="cls-4" d="M655,137.09a14.7649,14.7649,0,0,1-2.7013.1659A30.6291,30.6291,0,0,1,622.9269,115.63c-.6785.3329-1.3524.4988-2.0274.8317a10.3656,10.3656,0,0,1,2.0274-.8317.5788.5788,0,0,0-.1716-.3329,6.0279,6.0279,0,0,0-1.3523.8317c-1.01.5-2.0218,1.1646-2.8672,1.6646a.1656.1656,0,0,0-.17.1612l0,.0047c-.3364.1658-.674.4987-1.0115.6646a25.9222,25.9222,0,0,0-11.6474,21.46,18.1372,18.1372,0,0,0,.1659,2.9951v.3318A68.6053,68.6053,0,0,0,655,181.6728Z"/></svg>