<svg id="レイヤー_1" data-name="レイヤー 1" xmlns="http://www.w3.org/2000/svg" viewBox="0 0 555.2432 188.8104"><defs><style>.cls-1{fill:#34314c;}.cls-2{fill:#45b8e0;}.cls-3{fill:#ffca51;}.cls-4{fill:#ff4d5b;}</style></defs><path d="M205.0993,93.0053h-35.114l-12.6612,17.8-6.247,8.9825V45.5948H122.3784v141.4h28.6987v-35.6l6.247,8.8171,19.0764,26.783h35.114l-36.6334-51.4037Z" transform="translate(-122.3784 -45.5948)"/><path d="M253.2119,93.0053H224.5132v93.99h28.6987Z" transform="translate(-122.3784 -45.5948)"/><path d="M238.8631,78.5327a16.4707,16.4707,0,1,0-16.7126-16.4689A16.5918,16.5918,0,0,0,238.8631,78.5327Z" transform="translate(-122.3784 -45.5948)"/><path d="M333.2326,91.1756a41.0306,41.0306,0,0,0-27.6861,10.979V93.0053h-28.7v141.4h28.7V177.1794a41.3522,41.3522,0,0,0,27.6861,10.9793c32.5819,0,43.7237-30.11,43.7237-48.4075C376.9563,112.9682,357.373,91.1756,333.2326,91.1756Zm-7.7665,72.3635c-9.1154,0-16.8808-6.6537-19.92-15.97a27.6859,27.6859,0,0,1-1.3513-8.3183,26.8445,26.8445,0,0,1,1.3513-8.3171c3.0388-9.3159,10.8042-15.97,19.92-15.97,11.6486,0,21.2709,10.8123,21.2709,24.2867S337.284,163.5391,325.4661,163.5391Z" transform="translate(-122.3784 -45.5948)"/><path d="M448.7036,91.1756a41.3554,41.3554,0,0,0-27.6862,10.979V93.0053H392.3188v141.4h28.6986V177.1794a41.3548,41.3548,0,0,0,27.6862,10.9793c32.5819,0,43.7248-30.11,43.7248-48.4075C492.4284,112.9682,472.8451,91.1756,448.7036,91.1756Zm-7.7654,72.3635c-9.1165,0-16.8819-6.6537-19.9208-15.97a27.7224,27.7224,0,0,1-1.35-8.3183,26.88,26.88,0,0,1,1.35-8.3171c3.0389-9.3159,10.8043-15.97,19.9208-15.97,11.818,0,21.2709,10.8123,21.2709,24.2867S452.5868,163.5391,440.9382,163.5391Z" transform="translate(-122.3784 -45.5948)"/><path class="cls-1" d="M580.5531,117.7926c-.17,0-.17-.1671-.341-.1671-1.3489-.8317-2.7013-1.6634-4.0491-2.3292,0,.167,0,.3329-.1705.3329A30.4743,30.4743,0,0,1,546.62,137.2549a14.7565,14.7565,0,0,1-2.7013-.1659v44.249a69.33,69.33,0,0,0,34.4377-17.9648,66.17,66.17,0,0,0,14.6863-20.4622,17.641,17.641,0,0,0,.1705-2.9939,25.7982,25.7982,0,0,0-11.6485-21.6257C581.227,118.2914,580.8906,117.9585,580.5531,117.7926Zm-1.3524-.6659c-.17,0-.3375-.167-.508-.167A.6277.6277,0,0,1,579.2007,117.1267Z" transform="translate(-122.3784 -45.5948)"/><path class="cls-2" d="M529.9073,45.7612a77.6715,77.6715,0,0,0-8.7813.4991v64.2119a68.1217,68.1217,0,0,1,21.9482-3.4934h.6739a70.0978,70.0978,0,0,1,32.2444,8.1516c1.5183.8317,3.0377,1.6634,4.39,2.4951.3375.1671.6739.4988,1.0115.6659a25.7982,25.7982,0,0,1,11.6485,21.6257,18.0058,18.0058,0,0,1-.167,2.9939,64.5914,64.5914,0,0,0,4.0491-10.8123,69.9362,69.9362,0,0,0,2.3639-17.9659c0-33.1048-23.9711-60.7194-55.54-67.0408A73.6892,73.6892,0,0,0,529.9073,45.7612Z" transform="translate(-122.3784 -45.5948)"/><path class="cls-3" d="M677.6216,90.344V46.4266A74.4487,74.4487,0,0,0,655,47.2585c-31.7364,6.3213-55.54,33.9359-55.54,67.04a69.0182,69.0182,0,0,0,2.3638,17.9659,59.565,59.565,0,0,0,4.0491,10.8134v-.3329a18.13,18.13,0,0,1-.1659-2.9939,25.92,25.92,0,0,1,11.6474-21.46c.3375-.1671.6751-.4988,1.0115-.6659,1.3524-.8317,2.8718-1.6634,4.3912-2.4951A70.0832,70.0832,0,0,1,655,106.9793h.6739a68.8454,68.8454,0,0,1,21.9482,3.4934Z" transform="translate(-122.3784 -45.5948)"/><path class="cls-4" d="M655,137.089a14.77,14.77,0,0,1-2.7013.1659,30.629,30.629,0,0,1-29.3715-21.6257c-.6785.3329-1.3524.4988-2.0274.8317a10.3641,10.3641,0,0,1,2.0274-.8317.5783.5783,0,0,0-.1717-.3329,6.028,6.028,0,0,0-1.3523.8317c-1.01.5-2.0217,1.1646-2.8672,1.6646a.1656.1656,0,0,0-.17.1659c-.3364.1658-.674.4987-1.0115.6646a25.9221,25.9221,0,0,0-11.6474,21.46,18.1375,18.1375,0,0,0,.1659,2.9951v.3318A68.6054,68.6054,0,0,0,655,181.672V137.089Z" transform="translate(-122.3784 -45.5948)"/></svg>